<?xml version="1.0" encoding="utf-8"?>
<!-- Generator: Adobe Illustrator 27.9.0, SVG Export Plug-In . SVG Version: 6.00 Build 0)  -->
<svg version="1.1" id="Layer_1" xmlns="http://www.w3.org/2000/svg" xmlns:xlink="http://www.w3.org/1999/xlink" x="0px" y="0px"
	 viewBox="0 0 644 380" style="enable-background:new 0 0 644 380;" xml:space="preserve">
<style type="text/css">
	.st0{fill:#FFFFFF;stroke:#000000;stroke-width:0.587;stroke-linecap:round;stroke-linejoin:round;stroke-miterlimit:10;}
	.st1{fill:#E0F2F9;}
	.st2{fill:#FFFFFF;stroke:#BFE4F5;stroke-width:0.587;stroke-linecap:round;stroke-linejoin:round;stroke-miterlimit:10;}
	.st3{fill:#FCDBC4;}
	.st4{fill:none;stroke:#FFFFFF;stroke-width:0.587;stroke-linecap:round;stroke-linejoin:round;stroke-miterlimit:10;}
	.st5{fill:#161616;}
	.st6{fill:#878787;}
	.st7{fill:#0C0C0C;}
	.st8{fill:#FFE529;stroke:#000000;stroke-width:0.587;stroke-miterlimit:10;}
	.st9{fill:none;stroke:#000000;stroke-width:0.587;stroke-linecap:round;stroke-linejoin:round;stroke-miterlimit:10;}
	.st10{fill:#FFFFFF;stroke:#EEEEEE;stroke-width:0.587;stroke-linecap:round;stroke-linejoin:round;stroke-miterlimit:10;}
	.st11{fill:#CCCCCC;}
	.st12{fill:#F06B30;}
	.st13{fill:#F46F14;stroke:#FFFFFF;stroke-width:0.587;stroke-linecap:round;stroke-linejoin:round;stroke-miterlimit:10;}
	.st14{fill:#F6934E;stroke:#FFFFFF;stroke-width:0.587;stroke-linecap:round;stroke-linejoin:round;stroke-miterlimit:10;}
	.st15{fill:#F9B789;stroke:#FDFDFF;stroke-width:0.587;stroke-linecap:round;stroke-linejoin:round;stroke-miterlimit:10;}
	.st16{fill:none;stroke:#FDFDFF;stroke-width:0.587;stroke-linecap:round;stroke-linejoin:round;}
	.st17{fill:none;stroke:#FDFDFF;stroke-width:0.587;stroke-linecap:round;stroke-linejoin:round;stroke-dasharray:4.7086,4.7086;}
	.st18{fill:none;stroke:#FCDBC4;stroke-width:0.587;stroke-linecap:round;stroke-linejoin:round;stroke-miterlimit:10;}
	.st19{fill:none;stroke:#E3F3CF;stroke-width:0.587;stroke-linecap:round;stroke-linejoin:round;stroke-miterlimit:9.9996;}
	.st20{fill:none;stroke:#BFE4F5;stroke-width:0.587;stroke-linecap:round;stroke-linejoin:round;stroke-miterlimit:10;}
	.st21{fill:#FFFFFF;}
	.st22{font-family:'Lato-Heavy';}
	.st23{font-size:34.5073px;}
	.st24{letter-spacing:-1;}
	.st25{fill:none;stroke:#000000;stroke-width:0.587;stroke-linecap:round;stroke-linejoin:round;stroke-miterlimit:9.9994;}
	.st26{fill:#F46F14;}
	.st27{fill:#91D041;}
	.st28{fill:#0196DA;}
	.st29{fill:none;stroke:#FFFFFF;stroke-width:0.3697;stroke-linecap:round;stroke-linejoin:round;stroke-miterlimit:10.0004;}
	.st30{fill:none;stroke:#FFFFFF;stroke-width:0.3697;stroke-linecap:round;stroke-linejoin:round;stroke-miterlimit:10;}
	.st31{fill:#BFE4F5;}
	.st32{opacity:0.5;fill:#E0F2F9;enable-background:new    ;}
	.st33{fill:none;stroke:#FFFFFF;stroke-width:1.0809;stroke-linecap:round;stroke-linejoin:round;stroke-miterlimit:9.9999;}
	.st34{fill:none;stroke:#FFFFFF;stroke-width:1.0809;stroke-linecap:round;stroke-linejoin:round;stroke-miterlimit:10;}
	.st35{fill:none;}
	.st36{fill:#FEFAD8;}
	.st37{fill-rule:evenodd;clip-rule:evenodd;fill:#FCDBC4;}
	.st38{fill-rule:evenodd;clip-rule:evenodd;fill:#BFE4F5;}
	.st39{fill:#E1E1E1;}
	.st40{fill:#1A2E35;}
	.st41{fill:#F6F6F6;}
	.st42{fill:#06141C;}
	.st43{fill:#C6C6C6;}
	.st44{fill:#1F4168;}
	.st45{fill:#F6934E;}
	.st46{fill:#F0F2F5;}
	.st47{opacity:0.3;fill:#AFAEAE;enable-background:new    ;}
	.st48{fill:#0F0F0F;}
	.st49{font-family:'ProximaNova-Semibold';}
	.st50{font-size:8.7849px;}
	.st51{fill:#9B9B9B;}
	.st52{font-family:'Lato-Medium';}
	.st53{font-size:8px;}
</style>
<g>
	<g>
		<rect x="266.2" y="277.2" class="st0" width="4.4" height="54.3"/>
		<path class="st0" d="M268.4,329.9c-3.8,0-6.9,3.1-6.9,6.9h13.8C275.3,333,272.2,329.9,268.4,329.9z"/>
		<g>
			<polygon class="st0" points="268.6,336.7 237,336.7 237,346.2 240.4,346.2 240.4,339.7 268.6,339.7 			"/>
			<circle class="st0" cx="238.7" cy="346.5" r="3.9"/>
			<circle class="st1" cx="238.7" cy="346.5" r="1.8"/>
		</g>
		<g>
			<polygon class="st0" points="268.6,336.7 300.2,336.7 300.2,346.2 296.8,346.2 296.8,339.7 268.6,339.7 			"/>
			<circle class="st0" cx="298.5" cy="346.5" r="3.9"/>
			<circle class="st1" cx="298.5" cy="346.5" r="1.8"/>
		</g>
	</g>
	<g>
		<path class="st2" d="M332.8,255.3c-0.6,6.9-6.3,13.7-9.7,16.5c-5.6,4.5-26.4,5.9-37.5,6.3c-1.1,0-2.1,0.1-2.9,0.1
			c-9.9,0.3-55,5.2-53.1-24.4c2-29.6-3.7-32.8-10.4-58.7s-22-44.2,23.9-50.1c16.9-2.2,27.2,2.2,33.5,8.5
			c10.8,10.9,9.7,27.8,9.7,27.8c0,12.7,6.8,36.3,20.2,50.2c4,4.2,8.7,7.5,13.9,9.3C330.4,244.2,333.2,249.7,332.8,255.3z"/>
		<path class="st1" d="M332.8,255.3c-0.6,6.9-6.3,13.7-9.7,16.5c-5.6,4.5-26.4,5.6-37.5,6.1c-1.5,0-2.8,0-3.9-0.1
			c-9.8-1-55.2-2.3-49.8-29.2c5.5-26.9,0.2-30.5-3.3-55.1c-3.6-24.6-16.6-43.3,29.7-42.8c7.4,0.1,13.4,1.1,18.3,2.8
			c25.7,8.9,20.3,35.9,20.3,35.9c-1.3,10,1.5,28,9.6,42c4.2,7.2,9.9,13.4,17.1,16.8C328.3,250.4,331.2,252.8,332.8,255.3z"/>
	</g>
	<g>
		<g>
			<polygon class="st0" points="335.5,310.4 317.4,357.4 296.4,354 314,304.2 			"/>
			<g>
				<path class="st3" d="M296.8,351.5l20.7,1.5c0,0,23.8,3.9,22,16.2l-43.8-3.1c0,0-3.7-2.5-2-6.1
					C295.5,356.4,296.8,351.5,296.8,351.5z"/>
				<path class="st3" d="M313.1,355.1l5.6-11c0,0,5.5,2.8,2.9,7.3c-2.5,4.5-3.5,5.5-3.5,5.5L313.1,355.1z"/>
			</g>
			<line class="st4" x1="329.8" y1="354.4" x2="325.4" y2="359.5"/>
			<line class="st4" x1="327.7" y1="353.4" x2="323.3" y2="358.6"/>
			<line class="st4" x1="325.8" y1="351.9" x2="321.3" y2="357.1"/>
		</g>
		<path class="st5" d="M301.1,226c0,0,38.3,10.7,42.7,21.8c4.4,11.1-12.6,85.6-12.6,85.6l-27.2-8.1l12.8-68.9L264.3,226H301.1z"/>
	</g>
	<g>
		<g>
			<polygon class="st0" points="344.5,303.3 371,346.3 355.9,361.4 328.1,316.3 			"/>
			<g>
				<path class="st3" d="M354.2,359.6l13.2-16c0,0,17.1-17.1,26-8.5l-28,33.8c0,0-4.2,1.6-6.1-1.9
					C357.4,363.5,354.2,359.6,354.2,359.6z"/>
				<path class="st3" d="M366.6,348.5l-5.7-11c0,0,5.5-2.8,7.6,1.9c2.1,4.7,2.4,6.1,2.4,6.1L366.6,348.5z"/>
			</g>
			<line class="st4" x1="375.7" y1="334.4" x2="377.3" y2="341.1"/>
			<line class="st4" x1="373.7" y1="335.6" x2="375.3" y2="342.2"/>
			<line class="st4" x1="371.4" y1="336.3" x2="373" y2="343"/>
		</g>
		<path d="M235.9,226c0,0-11.1,42.2,19.6,44.4c30.7,2.2,39.2,0,39.2,0l35.5,57.4l22.6-18.1c0,0-26.3-52.9-28.9-63.3
			c-2.6-10.4-20.1-17.4-30.6-20.4L235.9,226L235.9,226z"/>
	</g>
	<rect x="158.6" y="226" class="st6" width="307.3" height="4.1"/>
	<g>
		<path class="st7" d="M290.4,156.4c0,0-15.1,9.8-43.4,0.2c0,0,3.3-7.1,3.2-29.7c-0.1-23,9.4-27.5,19.9-28.6
			c10.6-1.1,20.2,2.4,22.5,24.2C294.5,139.6,290.4,156.4,290.4,156.4z"/>
		<g>
			<path class="st8" d="M269.6,150.1c0,0-34.1-0.4-37,21.5c-3,21.8-1.5,47.8,3.3,54.4h65.2l3-58.9
				C304,167.1,303.7,150.1,269.6,150.1z"/>
			<path class="st8" d="M300.3,159.4c0,0,9.6,7.9,15.1,34.3s5.5,29.6,5.5,29.6l-19.8,0.1l-14.3-47"/>
			<g>
				<g>
					<path class="st0" d="M297.9,214.6c0,0,0.5,4.3,0.9,5.4c0,0-5.8-0.4-5.2,2.2c0.6,2.5,14.5,0,16.6-0.8c1.6-0.6,1.6-8.8,1.1-11.7
						l8.5,10.4c0,0,3.6,0.9,2.3-2.2c-1.2-3.1-8.5-14.1-8.5-14.1s-3.3-4.4-10.9-2.4s-12.9,2.7-12.9,2.7S279.4,215.5,297.9,214.6z"/>
					<path class="st9" d="M302.8,212.5c0,0,2.4,9-1,9.9"/>
					<path class="st9" d="M307.2,210.4c0,0,2.3,10.6-1.1,11.6"/>
				</g>
				<path class="st8" d="M235.9,225.9l60.4-7.3l-3-17l-41.6,4.3c0,0,3.2-16.5,0.4-27"/>
			</g>
		</g>
		<g>
			<path class="st0" d="M282.3,144.6v5.8v0.4c0,6-4.9,10.9-10.9,10.9l0,0c-6,0-10.9-4.9-10.9-10.9v-0.3v-16.2c0,0-6.4-0.6-6.4-5.7
				c0-6.2,3.3-5.4,3.3-5.4v-8.8h29.5v22.2c0,5.2-4.2,9.5-9.5,9.5h-4.5"/>
			<path class="st0" d="M278.1,129.2c-0.2,1.4,0.1,2.9,0.8,4.1c0.5,0.8,1.1,1.7,1,2.6c-0.1,1.1-1.4,1.9-2.4,1.6"/>
			<path d="M273.5,128.6c0,1.3-0.6,2.4-1.4,2.4s-1.4-1.1-1.4-2.4c0-1.3,0.6-2.4,1.4-2.4C272.8,126.3,273.5,127.3,273.5,128.6z"/>
			<path d="M283.7,128.6c0,1.3-0.6,2.4-1.4,2.4s-1.4-1.1-1.4-2.4c0-1.3,0.6-2.4,1.4-2.4C283.1,126.3,283.7,127.3,283.7,128.6z"/>
			<path class="st0" d="M273.9,139.5c1.4,1.2,3.5,1.6,5.3,1"/>
			<path class="st9" d="M256.9,126.9c0.1,0.6,0,1.1,0,1.7s0.1,1.2,0.5,1.6c0.4,0.4,0.9,0.6,1.5,0.7"/>
			<path class="st7" d="M281.6,112c0,0-1.5,8.9-19.1,9.7c0,0,0.5,8.3-1.7,7.9c-3.1-0.5-4-7.8-4-7.8s-2.7-6.9,1-12
				C261.6,104.8,279.9,101.2,281.6,112z"/>
			<path class="st7" d="M279.5,112.8c0,0,0.8,5.9,10.6,8.3C290.2,121.1,292.6,106.3,279.5,112.8z"/>
			<path d="M279.6,122.8c-0.2,0-0.5,0.1-0.6,0.2c-0.2,0.2-0.2,0.4-0.1,0.6c0.1,0.1,0.3,0.1,0.4,0.2c1.8,0.2,3.6,0.5,5.4,0.7
				c0.3,0,0.6,0,0.8-0.2c0.1-0.2,0-0.5-0.1-0.6c-0.2-0.2-0.4-0.2-0.6-0.3c-0.7-0.2-1.4-0.4-2.2-0.5c-0.6-0.1-1.2-0.1-1.8-0.1
				C280.5,122.7,280.1,122.7,279.6,122.8z"/>
			<path d="M274.4,122.8c0.2,0,0.5,0.1,0.6,0.2c0.2,0.2,0.2,0.4,0.1,0.6c-0.1,0.1-0.3,0.1-0.4,0.2c-1.8,0.2-3.6,0.5-5.4,0.7
				c-0.3,0-0.6,0-0.8-0.2c-0.1-0.2,0-0.5,0.1-0.6c0.2-0.2,0.4-0.2,0.6-0.3c0.7-0.2,1.4-0.4,2.2-0.5c0.6-0.1,1.2-0.1,1.8-0.1
				C273.6,122.7,274,122.7,274.4,122.8z"/>
		</g>
	</g>
	<g>
		<g>
			<path class="st10" d="M307.8,226l26.6-53c0.2-0.5,0.7-0.7,1.2-0.7H390c1,0,1.6,1,1.2,1.9L366.1,226H307.8z"/>
			<path class="st10" d="M310,226l25.7-51.5c0.2-0.4,0.7-0.7,1.2-0.7h52.6c1,0,1.6,1,1.2,1.9L366.4,226H310z"/>
			<polygon class="st10" points="309.1,223.3 276.7,223.3 276.7,226 307.8,226 			"/>
		</g>
		<polygon class="st11" points="312.2,223.3 366.7,223.3 368.2,220.5 314.2,220 		"/>
		<path class="st11" d="M353.8,196c0-1.7,1-3.1,2.4-3.8c-2.3-0.8-5,1.2-6.2,4.4c-1.1,3.2-0.1,6.5,2.1,7.3c2.1,0.7,4.6-0.9,5.8-3.6
			C355.6,200.3,353.8,198.4,353.8,196z"/>
	</g>
	<g>
		<polygon class="st10" points="399.2,226 387.7,226 386.6,205.9 400.3,205.9 		"/>
		<rect x="385.1" y="203.4" class="st10" width="16.7" height="2.5"/>
		<rect x="386.3" y="201.6" class="st10" width="14.3" height="1.7"/>
		<path class="st12" d="M396.5,213.8c0,1.7-1.4,3.1-3.1,3.1s-3.1-1.4-3.1-3.1c0-1.7,1.4-3.1,3.1-3.1S396.5,212.1,396.5,213.8z"/>
	</g>
</g>
<g>
	<g>
		<polygon class="st13" points="306.5,24 346,16.8 314.2,28.2 		"/>
		<polygon class="st13" points="346,16.8 318.8,31.9 328.2,40.8 		"/>
		<polygon class="st14" points="314.2,28.2 316.8,40.8 318.8,31.9 346,16.8 		"/>
		<polygon class="st15" points="316.8,40.8 323,35.9 318.8,31.9 		"/>
	</g>
	<g>
		<g>
			<path class="st16" d="M314.3,43c-0.5,0.6-0.9,1.3-1.4,1.9"/>
			<path class="st17" d="M310.4,48.9c-11.6,19.6-14.3,44.2-7.8,65.9c1.5,5.1,3.7,10.2,7.3,14.1c6.4,6.7,16.4,8.6,25.7,8.2
				c17.4-0.8,33.5-8,50.1-12.8c12.4-3.5,28.6-6.5,39.2,2.4"/>
			<path class="st16" d="M426.7,128.3c0.5,0.6,1.1,1.1,1.5,1.8"/>
		</g>
	</g>
</g>
<g>
	<g>
		<path class="st1" d="M393.8,36.7c0,0.8-0.7,1.5-1.5,1.5s-1.5-0.7-1.5-1.5s0.7-1.5,1.5-1.5C393.1,35.2,393.8,35.8,393.8,36.7z"/>
		<path class="st1" d="M398.7,36.7c0,0.8-0.7,1.5-1.5,1.5s-1.5-0.7-1.5-1.5s0.7-1.5,1.5-1.5S398.7,35.8,398.7,36.7z"/>
		<path class="st1" d="M403.6,36.7c0,0.8-0.7,1.5-1.5,1.5s-1.5-0.7-1.5-1.5s0.7-1.5,1.5-1.5S403.6,35.8,403.6,36.7z"/>
		<path class="st1" d="M408.5,36.7c0,0.8-0.7,1.5-1.5,1.5s-1.5-0.7-1.5-1.5s0.7-1.5,1.5-1.5S408.5,35.8,408.5,36.7z"/>
		<path class="st1" d="M413.4,36.7c0,0.8-0.7,1.5-1.5,1.5s-1.5-0.7-1.5-1.5s0.7-1.5,1.5-1.5S413.4,35.8,413.4,36.7z"/>
	</g>
	<g>
		<path class="st1" d="M398.7,41.5c0,0.8-0.7,1.5-1.5,1.5s-1.5-0.7-1.5-1.5s0.7-1.5,1.5-1.5S398.7,40.7,398.7,41.5z"/>
		<path class="st1" d="M403.6,41.5c0,0.8-0.7,1.5-1.5,1.5s-1.5-0.7-1.5-1.5s0.7-1.5,1.5-1.5S403.6,40.7,403.6,41.5z"/>
		<path class="st1" d="M408.5,41.5c0,0.8-0.7,1.5-1.5,1.5s-1.5-0.7-1.5-1.5s0.7-1.5,1.5-1.5S408.5,40.7,408.5,41.5z"/>
		<path class="st1" d="M413.4,41.5c0,0.8-0.7,1.5-1.5,1.5s-1.5-0.7-1.5-1.5s0.7-1.5,1.5-1.5S413.4,40.7,413.4,41.5z"/>
		<path class="st1" d="M418.3,41.5c0,0.8-0.7,1.5-1.5,1.5s-1.5-0.7-1.5-1.5s0.7-1.5,1.5-1.5C417.6,40,418.3,40.7,418.3,41.5z"/>
	</g>
	<g>
		<path class="st1" d="M383.3,32.1c0,0.8-0.7,1.5-1.5,1.5s-1.5-0.7-1.5-1.5s0.7-1.5,1.5-1.5S383.3,31.3,383.3,32.1z"/>
		<path class="st1" d="M388.2,32.1c0,0.8-0.7,1.5-1.5,1.5s-1.5-0.7-1.5-1.5s0.7-1.5,1.5-1.5S388.2,31.3,388.2,32.1z"/>
		<path class="st1" d="M393.1,32.1c0,0.8-0.7,1.5-1.5,1.5s-1.5-0.7-1.5-1.5s0.7-1.5,1.5-1.5C392.5,30.6,393.1,31.3,393.1,32.1z"/>
		<path class="st1" d="M398,32.1c0,0.8-0.7,1.5-1.5,1.5s-1.5-0.7-1.5-1.5s0.7-1.5,1.5-1.5S398,31.3,398,32.1z"/>
		<path class="st1" d="M402.9,32.1c0,0.8-0.7,1.5-1.5,1.5s-1.5-0.7-1.5-1.5s0.7-1.5,1.5-1.5C402.3,30.6,402.9,31.3,402.9,32.1z"/>
	</g>
</g>
<g>
	<polygon class="st3" points="361.6,160.1 376.3,155.6 372.1,152.6 378,146.7 374.8,143.6 368.9,149.5 365.9,145.5 	"/>
	<polygon class="st4" points="361.3,158 375.9,153.5 371.8,150.5 377.6,144.6 374.4,141.4 368.6,147.4 365.5,143.4 	"/>
</g>
<path class="st18" d="M447.8,43.8l-0.3,0.2c-2.6,1.7-2.4,5.5,0.4,6.9l0.3,0.2c2.8,1.4,6-0.7,5.8-3.8v-0.4
	C453.8,43.9,450.4,42.1,447.8,43.8z"/>
<rect x="258.9" y="65.6" transform="matrix(0.5 -0.866 0.866 0.5 70.7837 263.9146)" class="st19" width="10.1" height="10.1"/>
<path class="st20" d="M414.2,172.4c0,2.4-2,4.4-4.4,4.4s-4.4-2-4.4-4.4s2-4.4,4.4-4.4C412.3,167.9,414.2,169.9,414.2,172.4z"/>
<g>
	<path class="st4" d="M189.1,142.3c0.2-0.5,0.4-1,0.6-1.5l-1.3-1.6c-0.4-0.4-0.3-1.1,0.1-1.5l0.9-0.9c0.4-0.4,1-0.4,1.5-0.1l1.6,1.3
		c0.5-0.3,1-0.5,1.5-0.6l0.2-2.1c0.1-0.6,0.5-1,1.1-1h1.3c0.6,0,1,0.4,1.1,1l0.2,2.1c0.5,0.2,1,0.4,1.5,0.6l1.6-1.3
		c0.4-0.4,1.1-0.3,1.5,0.1l0.9,0.9c0.4,0.4,0.4,1,0.1,1.5l-1.3,1.6c0.3,0.5,0.5,1,0.6,1.5l2.1,0.2c0.6,0.1,1,0.5,1,1.1v1.3
		c0,0.6-0.4,1-1,1.1l-2.1,0.2c-0.2,0.5-0.4,1-0.6,1.5l1.3,1.6c0.4,0.4,0.3,1.1-0.1,1.5l-0.9,0.9c-0.4,0.4-1,0.4-1.5,0.1l-1.6-1.3
		c-0.5,0.3-1,0.5-1.5,0.6l-0.2,2.1c-0.1,0.6-0.5,1-1.1,1h-1.3c-0.6,0-1-0.4-1.1-1l-0.2-2.1c-0.5-0.2-1-0.4-1.5-0.6l-1.6,1.3
		c-0.4,0.4-1.1,0.3-1.5-0.1l-0.9-0.9c-0.4-0.4-0.4-1-0.1-1.5l1.3-1.6c-0.3-0.5-0.5-1-0.6-1.5L187,146c-0.6-0.1-1-0.5-1-1.1v-1.3
		c0-0.6,0.4-1,1-1.1L189.1,142.3z"/>
	<path class="st4" d="M199.4,144.3c0-1.8-1.5-3.3-3.3-3.3s-3.3,1.5-3.3,3.3s1.5,3.3,3.3,3.3S199.4,146.2,199.4,144.3z"/>
</g>
<g>
	<g>
		<path class="st3" d="M394.3,110.4l-60.2,9.7c-5.2,0.8-10.1-2.7-11-7.9l-5.7-34.9c-0.8-5.2,2.7-10.1,7.9-11l60.2-9.7
			c5.2-0.8,10.1,2.7,11,7.9l5.7,34.9C403.1,104.7,399.5,109.6,394.3,110.4z"/>
	</g>
	<g>
		<g>
			<path class="st4" d="M400.9,107.8l-70.1,11.4c-2.5,0.4-4.8-1.3-5.2-3.8l-7.3-44.8c-0.4-2.5,1.3-4.8,3.8-5.2L392.2,54
				c2.5-0.4,4.8,1.3,5.2,3.8l7.3,44.8C405.1,105.1,403.4,107.4,400.9,107.8z"/>
			<line class="st4" x1="319.1" y1="75" x2="398.1" y2="62.2"/>
			<g>
				<path class="st0" d="M324.8,69.9c0.1,0.9-0.5,1.8-1.4,1.9s-1.8-0.5-1.9-1.4s0.5-1.8,1.4-1.9C323.8,68.3,324.7,69,324.8,69.9z"/>
				<path class="st0" d="M329.6,69.1c0.1,0.9-0.5,1.8-1.4,1.9s-1.8-0.5-1.9-1.4s0.5-1.8,1.4-1.9S329.4,68.2,329.6,69.1z"/>
				<path class="st0" d="M334.3,68.3c0.1,0.9-0.5,1.8-1.4,1.9s-1.8-0.5-1.9-1.4s0.5-1.8,1.4-1.9S334.2,67.4,334.3,68.3z"/>
			</g>
		</g>
		<text transform="matrix(0.9871 -0.1599 0.1599 0.9871 338.6821 105.7752)" class="st21 st22 st23 st24">&lt;/&gt;</text>
		<text transform="matrix(0.9871 -0.1599 0.1599 0.9871 338.6821 105.7752)" class="st25 st22 st23 st24">&lt;/&gt;</text>
	</g>
</g>
<g>
	
		<rect x="95.2" y="105.2" transform="matrix(0.9827 -0.1852 0.1852 0.9827 -19.2928 20.157)" class="st26" width="6.1" height="16.3"/>
	
		<rect x="115.3" y="90.5" transform="matrix(0.9827 -0.1853 0.1853 0.9827 -17.2311 23.7327)" class="st27" width="6.1" height="27.1"/>
	
		<rect x="105.2" y="97.9" transform="matrix(0.9827 -0.1853 0.1853 0.9827 -18.2676 21.9414)" class="st28" width="6.1" height="21.6"/>
	
		<rect x="97.4" y="103.1" transform="matrix(0.9827 -0.1853 0.1853 0.9827 -19.0233 20.5541)" class="st29" width="6.1" height="17.9"/>
	
		<rect x="117.3" y="86.1" transform="matrix(0.9827 -0.1853 0.1853 0.9827 -16.7519 24.0616)" class="st29" width="6.1" height="31.1"/>
	
		<rect x="107.3" y="94.5" transform="matrix(0.9827 -0.1853 0.1853 0.9827 -17.8793 22.2975)" class="st29" width="6.1" height="24.6"/>
	<line class="st30" x1="93.5" y1="122.5" x2="132.7" y2="115.1"/>
</g>
<g>
	<path class="st31" d="M157.4,78.7v32c0,1.3,1,2.3,2.3,2.3h56.9l8.8,14.1V113v-3.2V78.7c0-1.3-1-2.3-2.3-2.3h-63.3
		C158.5,76.3,157.4,77.4,157.4,78.7z"/>
	<path class="st4" d="M160,76.2v32c0,1.3,1,2.3,2.3,2.3h56.9l8.8,14.1v-14.1v-3.2V76.2c0-1.3-1-2.3-2.3-2.3h-63.3
		C161,73.9,160,74.9,160,76.2z"/>
	<g>
		<path class="st0" d="M218.3,86.2h-47.1c-1.1,0-2-0.9-2-2l0,0c0-1.1,0.9-2,2-2h47.1c1.1,0,2,0.9,2,2l0,0
			C220.3,85.3,219.4,86.2,218.3,86.2z"/>
		<path class="st0" d="M211.8,93H171c-1,0-1.8-0.8-1.8-1.8l0,0c0-1,0.8-1.8,1.8-1.8h40.8c1,0,1.8,0.8,1.8,1.8l0,0
			C213.6,92.2,212.8,93,211.8,93z"/>
		<path class="st0" d="M198.2,99.8H171c-1,0-1.8-0.8-1.8-1.8l0,0c0-1,0.8-1.8,1.8-1.8h27.1c1,0,1.8,0.8,1.8,1.8l0,0
			C200,98.9,199.2,99.8,198.2,99.8z"/>
	</g>
</g>
<g>
	<g>
		<ellipse class="st32" cx="277.1" cy="34.7" rx="17.4" ry="17.4"/>
		<path class="st1" d="M294.5,34.7"/>
		<path class="st1" d="M259.7,34.7"/>
		<path class="st1" d="M277.1,52.1"/>
		<path class="st1" d="M277.1,17.2"/>
	</g>
	<g>
		<ellipse class="st33" cx="278.9" cy="33.4" rx="17.4" ry="17.4"/>
		<path class="st34" d="M288.2,33.4c0,9.6-4.1,17.4-9.2,17.4s-9.2-7.8-9.2-17.4S273.9,16,279,16C284,16,288.2,23.8,288.2,33.4z"/>
		<path class="st34" d="M291.2,21.1c-1.9,3.1-7.1,5.2-12.3,5.2c-5.2,0-10.3-2.1-12.3-5.2"/>
		<path class="st34" d="M266.7,45.8c1.9-3.1,7.1-5.2,12.3-5.2c5.2,0,10.3,2.1,12.3,5.2"/>
		<line class="st34" x1="261.5" y1="33.4" x2="296.4" y2="33.4"/>
		<line class="st34" x1="278.9" y1="16" x2="278.9" y2="50.8"/>
	</g>
</g>
<g>
	<g>
		<g>
			<g>
				<g>
					<g>
						<g>
							<path class="st35" d="M534.7,78.5c-0.6,0.9-1.4,1.7-2.2,2.4l0.6,3l-4.6,2l-1.8-2.4c-1.1,0.2-2.2,0.2-3.3,0.1l-1.7,2.5
								l-4.7-1.8l0.4-3c-0.9-0.6-1.7-1.4-2.4-2.2l-3,0.6l-2-4.6l2.4-1.8c-0.2-1.1-0.2-2.2-0.1-3.3l-2.5-1.7l1.8-4.7l3,0.4
								c0.6-0.9,1.4-1.7,2.2-2.4l-0.6-3l4.6-2l1.8,2.4c1.1-0.2,2.2-0.2,3.3-0.1l1.7-2.5l4.7,1.8l-0.4,3c0.9,0.6,1.7,1.4,2.4,2.2
								l3-0.6l2,4.6l-2.4,1.8c0.2,1.1,0.2,2.2,0.1,3.3l2.5,1.7l-1.8,4.7L534.7,78.5L534.7,78.5z M529.6,73.4
								c1.1-2.8-0.3-5.9-3.1-6.9c-2.8-1.1-5.9,0.3-6.9,3.1c-1.1,2.8,0.3,5.9,3.1,6.9C525.5,77.6,528.6,76.2,529.6,73.4z"/>
						</g>
					</g>
				</g>
			</g>
		</g>
		<g>
			<g>
				<g>
					<g>
						<g>
							<g>
								<path class="st36" d="M529.6,73.4c0,0-0.1,0.5-0.6,1.2s-1.4,1.7-2.9,2.1c-0.7,0.2-1.6,0.3-2.5,0.1c-0.9-0.2-1.8-0.6-2.6-1.2
									c-0.4-0.3-0.7-0.7-1-1.2s-0.5-1-0.7-1.5c-0.3-1.1-0.3-2.3,0.2-3.4c0.4-1.1,1.2-2.1,2.2-2.7c0.5-0.3,1-0.5,1.5-0.7
									c0.5-0.1,1.1-0.2,1.6-0.2c1,0,2,0.4,2.8,0.8c0.8,0.5,1.4,1.1,1.8,1.8c0.8,1.3,0.9,2.7,0.7,3.5
									C529.9,73,529.6,73.4,529.6,73.4s0.2-0.5,0.3-1.3s0-2.1-0.8-3.4c-0.4-0.6-1-1.2-1.7-1.7c-0.8-0.4-1.7-0.8-2.6-0.8
									c-0.5,0-1,0.1-1.5,0.2s-1,0.3-1.4,0.6c-0.9,0.6-1.6,1.5-2.1,2.5c-0.4,1.1-0.5,2.2-0.2,3.2c0.1,0.5,0.3,1,0.6,1.4
									s0.6,0.8,1,1.1c0.7,0.7,1.6,1,2.5,1.2s1.7,0.1,2.4-0.1c1.5-0.4,2.4-1.3,2.9-2C529.5,73.9,529.6,73.4,529.6,73.4z"/>
							</g>
						</g>
					</g>
				</g>
			</g>
		</g>
		<g>
			<g>
				<g>
					<g>
						<g>
							<g>
								<path class="st36" d="M534.7,78.5c0,0,0.1,0,0.2,0c0.1,0,0.3,0,0.6,0.1c0.5,0.1,1.3,0.2,2.2,0.3h-0.1
									c0.5-1.2,1.1-2.8,1.8-4.7v0.1c-0.8-0.5-1.6-1.1-2.5-1.7l0,0v-0.1c0.1-1,0.1-2.1-0.1-3.2v-0.1l0,0c0.8-0.6,1.6-1.2,2.4-1.8
									v0.1c-0.6-1.4-1.3-3-2-4.6l0.1,0.1c-0.9,0.2-1.9,0.4-3,0.6h-0.1v-0.1c-0.6-0.8-1.4-1.6-2.3-2.2h-0.1v-0.1
									c0.1-0.9,0.3-2,0.4-3l0.1,0.1c-1.5-0.6-3-1.2-4.7-1.8l0.2-0.1c-0.5,0.8-1.1,1.6-1.7,2.5V59H526c-1-0.1-2.1-0.1-3.2,0.1h-0.1
									l-0.1-0.1c-0.6-0.8-1.2-1.6-1.8-2.4h0.2c-1.4,0.6-3,1.3-4.6,2l0.1-0.2c0.2,0.9,0.4,1.9,0.6,3v0.1l-0.1,0.1
									c-0.8,0.6-1.6,1.4-2.2,2.3l0,0l0,0c-0.1,0,0.1-0.1-0.1,0.1l0,0l0,0l0,0l0,0l0,0h-0.1h-0.2l-0.4-0.1l-0.8-0.1
									c-0.5-0.1-1-0.1-1.5-0.2l0.2-0.1c-0.6,1.6-1.2,3.1-1.8,4.7L510,68c0.8,0.6,1.7,1.1,2.5,1.7l0.1,0.1v0.1
									c-0.1,1.1-0.1,2.2,0.1,3.2v0.1l-0.1,0.1c-0.8,0.6-1.6,1.2-2.4,1.8v-0.2c0.7,1.6,1.4,3.1,2,4.6l-0.2-0.1c1-0.2,2-0.4,3-0.6
									h0.1l0.1,0.1c0.7,0.9,1.5,1.6,2.3,2.2h0.1v0.1c-0.2,1-0.3,2-0.4,3l-0.1-0.1c1.6,0.6,3.2,1.2,4.7,1.8h-0.1
									c0.6-0.9,1.2-1.7,1.7-2.5v-0.1h0.1c1.1,0.1,2.2,0.1,3.2-0.1h0.1l0,0c0.7,0.9,1.2,1.7,1.8,2.4h-0.1c1.8-0.8,3.3-1.4,4.6-2
									v0.1c-0.2-1.2-0.4-2.2-0.6-3l0,0l0,0c0.9-0.7,1.4-1.3,1.8-1.7C534.5,78.8,534.6,78.6,534.7,78.5
									C534.7,78.6,534.7,78.5,534.7,78.5s0,0.1-0.1,0.2s-0.2,0.3-0.4,0.5c-0.3,0.4-0.9,1-1.7,1.7l0,0c0.2,0.8,0.4,1.8,0.6,3V84
									H533c-1.3,0.6-2.8,1.3-4.6,2h-0.1v-0.1c-0.6-0.7-1.2-1.5-1.8-2.4h0.1c-1,0.2-2.1,0.2-3.3,0.1h0.1c-0.5,0.8-1.1,1.6-1.7,2.5
									l-0.1,0.1h-0.1c-1.5-0.6-3-1.2-4.7-1.8h-0.1v-0.1c0.1-1,0.3-2,0.4-3l0.1,0.1c-0.9-0.6-1.7-1.4-2.4-2.3h0.1
									c-1,0.2-2,0.4-3,0.6h-0.1v-0.1c-0.7-1.5-1.3-3-2-4.6v-0.1l0.1-0.1c0.8-0.6,1.6-1.2,2.4-1.8l-0.1,0.1
									c-0.2-1.1-0.2-2.2-0.1-3.3l0.1,0.1c-0.8-0.6-1.7-1.1-2.5-1.7l-0.1-0.1V68c0.6-1.5,1.2-3.1,1.8-4.7v-0.1h0.1
									c0.5,0.1,1,0.1,1.5,0.2l0.8,0.1l0.4,0.1h0.2h0.1l0,0l0,0l0,0l0,0l0,0c-0.3,0.1-0.1,0-0.1,0.1l0,0l0,0
									c0.7-0.9,1.5-1.7,2.3-2.4l-0.1,0.1c-0.2-1-0.4-2-0.6-3v-0.1h0.1c1.6-0.7,3.1-1.4,4.6-2h0.1l0.1,0.1c0.6,0.8,1.2,1.7,1.8,2.4
									l-0.1-0.1c1.1-0.2,2.3-0.2,3.3-0.1l-0.1,0.1c0.6-0.9,1.2-1.7,1.7-2.5l0.1-0.1h0.1c1.6,0.6,3.2,1.2,4.7,1.8h0.1V58
									c-0.2,1-0.3,2.1-0.4,3l-0.1-0.1c0.9,0.7,1.7,1.5,2.4,2.3h-0.1c1-0.2,2-0.4,3-0.6h0.1v0.1c0.7,1.6,1.4,3.1,2,4.6v0.1
									l-0.1,0.1c-0.9,0.6-1.7,1.2-2.4,1.8v-0.1c0.2,1.1,0.2,2.3,0.1,3.3v-0.1c0.9,0.6,1.7,1.2,2.5,1.7h0.1v0.1
									c-0.7,1.9-1.4,3.5-1.8,4.7l0,0l0,0c-1-0.2-1.7-0.3-2.2-0.3c-0.2,0-0.4-0.1-0.6-0.1C534.8,78.5,534.7,78.5,534.7,78.5z"/>
							</g>
						</g>
					</g>
				</g>
			</g>
		</g>
	</g>
	<g>
		<g>
			<g>
				<g>
					<g>
						<path class="st37" d="M561.3,64.3c-0.5,0.7-1.2,1.4-1.9,2l0.5,2.5l-3.8,1.7l-1.5-2c-0.9,0.1-1.8,0.2-2.7,0.1l-1.4,2.1
							l-3.9-1.5l0.4-2.5c-0.7-0.5-1.4-1.2-2-1.9l-2.5,0.5l-1.7-3.8l2-1.5c-0.1-0.9-0.2-1.8-0.1-2.7l-2.1-1.4l1.5-3.9l2.5,0.4
							c0.5-0.7,1.2-1.4,1.9-2l-0.5-2.5l3.8-1.7l1.5,2c0.9-0.1,1.8-0.2,2.7-0.1l1.4-2.1l3.9,1.5L559,50c0.7,0.5,1.4,1.2,2,1.9
							l2.5-0.5l1.7,3.8l-2,1.5c0.1,0.9,0.2,1.8,0.1,2.7l2.1,1.4l-1.5,3.9L561.3,64.3L561.3,64.3z M557.1,60c0.9-2.3-0.3-4.9-2.6-5.8
							c-2.3-0.9-4.9,0.3-5.8,2.6c-0.9,2.3,0.3,4.9,2.6,5.8C553.7,63.5,556.2,62.3,557.1,60z"/>
					</g>
				</g>
			</g>
		</g>
	</g>
	<g>
		<g>
			<g>
				<g>
					<g>
						<path class="st38" d="M545,41.1c-0.8,1.2-1.8,2.2-2.9,3.1l0.8,3.9l-6,2.6l-2.4-3.2c-1.4,0.2-2.8,0.3-4.2,0.1l-2.2,3.3
							l-6.1-2.3l0.6-3.9c-1.2-0.8-2.2-1.8-3.1-2.9l-3.9,0.8l-2.6-6l3.2-2.4c-0.2-1.4-0.3-2.8-0.1-4.2l-3.3-2.2l2.3-6.1l3.9,0.6
							c0.8-1.2,1.8-2.2,2.9-3.1l-0.8-3.9l6-2.6l2.4,3.2c1.4-0.2,2.8-0.3,4.2-0.1l2.2-3.3l6.1,2.3l-0.6,3.9c1.2,0.8,2.2,1.8,3.1,2.9
							l3.9-0.8l2.6,6l-3.2,2.4c0.2,1.4,0.3,2.8,0.1,4.2l3.3,2.2l-2.3,6.1L545,41.1L545,41.1z M538.4,34.5c1.4-3.6-0.4-7.6-4-9
							s-7.6,0.4-9,4s0.4,7.6,4,9S537,38.1,538.4,34.5z"/>
					</g>
				</g>
			</g>
		</g>
	</g>
</g>
<g>
	<path class="st36" d="M456.2,73.9h137.3c2.8,0,5,2.2,5,5v109.9c0,2.8-2.2,5-5,5H456.2c-2.8,0-5-2.2-5-5V78.9
		C451.2,76.1,453.4,73.9,456.2,73.9z"/>
</g>
<g>
	<path class="st31" d="M448.8,81.6h137.3c2.8,0,5,2.2,5,5v109.9c0,2.8-2.2,5-5,5H448.8c-2.8,0-5-2.2-5-5V86.6
		C443.8,83.8,446,81.6,448.8,81.6z"/>
</g>
<g>
	<g>
		<path class="st21" d="M583.4,95v113.1c0,0.6-0.1,1.1-0.3,1.6c-0.7,2-2.5,3.4-4.7,3.4H431.3c-2.8,0-5-2.2-5-5V95c0-2.8,2.2-5,5-5
			h147.1C581.2,90,583.4,92.2,583.4,95z"/>
	</g>
</g>
<g>
	<g>
		<path class="st39" d="M583.5,100.2c0,0.1-39.7,0.2-81.3,0.2s-75.3-0.1-75.3-0.2s33.7-0.2,75.3-0.2
			C543.8,99.9,583.5,100,583.5,100.2z"/>
	</g>
</g>
<g>
	<g>
		<path class="st40" d="M431.3,94.8c0,0.5-0.4,1-1,1c-0.5,0-1-0.4-1-1c0-0.5,0.4-1,1-1S431.3,94.3,431.3,94.8z"/>
	</g>
	<g>
		<circle class="st40" cx="434.1" cy="94.8" r="1"/>
	</g>
	<g>
		<path class="st40" d="M438.8,94.8c0,0.5-0.4,1-1,1c-0.5,0-1-0.4-1-1c0-0.5,0.4-1,1-1S438.8,94.3,438.8,94.8z"/>
	</g>
</g>
<g>
	<g>
		<path class="st39" d="M438.4,214.1c-0.1,0-0.2-25.6-0.2-57c0-31.6,0.1-57,0.2-57s0.2,25.6,0.2,57S438.5,214.1,438.4,214.1z"/>
	</g>
</g>
<g>
	<g>
		<g>
			<polygon class="st41" points="211.5,41.9 211.5,19.6 204.2,19.6 204.2,14.4 200.3,19.6 169.2,19.6 169.2,41.9 			"/>
		</g>
	</g>
	<g>
		<g>
			<g>
				<path class="st42" d="M196.8,35.8l4.9-5l-4.9-5h4l4.9,5l-4.9,5H196.8z"/>
			</g>
			<g>
				<path class="st42" d="M179,30.7l4.9,5h-4l-4.9-5l4.9-5h4L179,30.7z"/>
			</g>
		</g>
		<g>
			<polygon class="st42" points="189.5,25.7 186.4,25.7 191.2,35.8 194.3,35.8 			"/>
		</g>
	</g>
</g>
<g>
	<g>
		<g>
			<polygon class="st21" points="156.4,140.2 156.4,202.9 141.9,202.9 141.9,213.1 134.1,202.9 58.4,202.9 58.4,140.2 			"/>
		</g>
		<g>
			<path class="st43" d="M134,203H58.3v-62.9h98.2v62.8H142v10.5L134,203z M156.3,140.3H58.6v62.5h75.6l7.6,10v-10h14.5V140.3z"/>
		</g>
		<g>
			<rect x="58.4" y="140.1" class="st3" width="97.9" height="7.7"/>
		</g>
		<g>
			<path class="st21" d="M61.9,142.8c-0.7,0-1.2,0.5-1.2,1.2s0.5,1.2,1.2,1.2s1.2-0.5,1.2-1.2S62.5,142.8,61.9,142.8z"/>
		</g>
		<g>
			<path class="st21" d="M66.6,142.8c-0.7,0-1.2,0.5-1.2,1.2s0.5,1.2,1.2,1.2s1.2-0.5,1.2-1.2S67.3,142.8,66.6,142.8z"/>
		</g>
		<g>
			<path class="st21" d="M71.3,142.8c-0.7,0-1.2,0.5-1.2,1.2s0.5,1.2,1.2,1.2s1.2-0.5,1.2-1.2S72,142.8,71.3,142.8z"/>
		</g>
	</g>
	<g>
		<g>
			<rect x="92.1" y="155.4" class="st44" width="7" height="5.6"/>
		</g>
		<g>
			<rect x="87.8" y="155.4" class="st45" width="2.9" height="5.6"/>
		</g>
		<g>
			<rect x="83.4" y="155.4" class="st44" width="2.9" height="5.6"/>
		</g>
		<g>
			<rect x="65.5" y="155.4" class="st46" width="2.9" height="5.6"/>
		</g>
		<g>
			<rect x="69.9" y="155.4" class="st46" width="12" height="5.6"/>
		</g>
		<g>
			<rect x="65.5" y="181.9" class="st46" width="2.5" height="5.6"/>
		</g>
		<g>
			<rect x="69.3" y="181.9" class="st46" width="10.4" height="5.6"/>
		</g>
		<g>
			<rect x="91.4" y="164.2" class="st45" width="3.9" height="5.6"/>
		</g>
		<g>
			<rect x="96.7" y="164.2" class="st46" width="2.4" height="5.6"/>
		</g>
		<g>
			<rect x="78.8" y="164.2" class="st44" width="11.1" height="5.6"/>
		</g>
		<g>
			<rect x="69.9" y="164.2" class="st45" width="7.5" height="5.6"/>
		</g>
		<g>
			<rect x="65.3" y="164.2" class="st44" width="3.1" height="5.6"/>
		</g>
		<g>
			<rect x="86.8" y="173.1" class="st44" width="12.3" height="5.6"/>
		</g>
		<g>
			<rect x="76.9" y="173.1" class="st45" width="8.5" height="5.6"/>
		</g>
		<g>
			<rect x="69.5" y="173.1" class="st44" width="6" height="5.6"/>
		</g>
		<g>
			<rect x="65.3" y="173.1" class="st44" width="2.7" height="5.6"/>
		</g>
		<g>
			<rect x="89.9" y="181.9" class="st44" width="9.2" height="5.6"/>
		</g>
		<g>
			<rect x="81.2" y="181.9" class="st45" width="7.3" height="5.6"/>
		</g>
	</g>
	<g>
		<g>
			<path class="st31" d="M117.3,172.3v-4.8h4.9l-1.3-6.3h5.1l1.3,6.3h6.9l-1.3-6.3h5l1.3,6.3h6.7v4.8h-5.7l1.3,5.9h6.8v4.8h-5.8
				l1.4,6.5h-5l-1.4-6.5h-6.9l1.4,6.5h-5.1l-1.4-6.5h-5.9v-4.8h4.8l-1.3-5.9H117.3z M129.5,178.2h6.9l-1.3-5.9h-6.9L129.5,178.2z"/>
		</g>
	</g>
	<g>
		<g>
			<path class="st44" d="M150.4,197.6c0-0.1,0-0.1,0.1-0.1h1.2v-1.2c0-0.1,0-0.1,0.1-0.1s0.1,0,0.1,0.1v1.4h-1.4
				C150.5,197.7,150.4,197.7,150.4,197.6z"/>
		</g>
		<g>
			<path class="st44" d="M117.1,197.6c0-0.1,0-0.1,0.1-0.1h2.4c0.1,0,0.1,0,0.1,0.1s0,0.1-0.1,0.1h-2.4
				C117.1,197.7,117.1,197.7,117.1,197.6z M121.8,197.6c0-0.1,0-0.1,0.1-0.1h2.4c0.1,0,0.1,0,0.1,0.1s0,0.1-0.1,0.1H122
				C121.9,197.7,121.8,197.7,121.8,197.6z M126.6,197.6c0-0.1,0-0.1,0.1-0.1h2.4c0.1,0,0.1,0,0.1,0.1s0,0.1-0.1,0.1h-2.4
				C126.7,197.7,126.6,197.7,126.6,197.6z M131.4,197.6c0-0.1,0-0.1,0.1-0.1h2.4c0.1,0,0.1,0,0.1,0.1s0,0.1-0.1,0.1h-2.4
				C131.4,197.7,131.4,197.7,131.4,197.6z M136.2,197.6c0-0.1,0-0.1,0.1-0.1h2.4c0.1,0,0.1,0,0.1,0.1s0,0.1-0.1,0.1h-2.4
				C136.2,197.7,136.2,197.7,136.2,197.6z M140.9,197.6c0-0.1,0-0.1,0.1-0.1h2.4c0.1,0,0.1,0,0.1,0.1s0,0.1-0.1,0.1H141
				C141,197.7,140.9,197.7,140.9,197.6z M145.7,197.6c0-0.1,0-0.1,0.1-0.1h2.4c0.1,0,0.1,0,0.1,0.1s0,0.1-0.1,0.1h-2.4
				C145.7,197.7,145.7,197.7,145.7,197.6z"/>
		</g>
		<g>
			<path class="st44" d="M113.5,197.7v-1.4c0-0.1,0-0.1,0.1-0.1s0.1,0,0.1,0.1v1.2h1.2c0.1,0,0.1,0,0.1,0.1s0,0.1-0.1,0.1
				L113.5,197.7L113.5,197.7z"/>
		</g>
		<g>
			<path class="st44" d="M113.5,193.9v-2.5c0-0.1,0-0.1,0.1-0.1s0.1,0,0.1,0.1v2.5c0,0.1,0,0.1-0.1,0.1S113.5,193.9,113.5,193.9z
				 M113.5,188.9v-2.5c0-0.1,0-0.1,0.1-0.1s0.1,0,0.1,0.1v2.5c0,0.1,0,0.1-0.1,0.1S113.5,189,113.5,188.9z M113.5,184v-2.5
				c0-0.1,0-0.1,0.1-0.1s0.1,0,0.1,0.1v2.5c0,0.1,0,0.1-0.1,0.1S113.5,184,113.5,184z M113.5,179v-2.5c0-0.1,0-0.1,0.1-0.1
				s0.1,0,0.1,0.1v2.5c0,0.1,0,0.1-0.1,0.1S113.5,179.1,113.5,179z M113.5,174.1v-2.5c0-0.1,0-0.1,0.1-0.1s0.1,0,0.1,0.1v2.5
				c0,0.1,0,0.1-0.1,0.1C113.5,174.2,113.5,174.1,113.5,174.1z M113.5,169.1v-2.5c0-0.1,0-0.1,0.1-0.1s0.1,0,0.1,0.1v2.5
				c0,0.1,0,0.1-0.1,0.1C113.5,169.2,113.5,169.2,113.5,169.1z M113.5,164.2v-2.5c0-0.1,0-0.1,0.1-0.1s0.1,0,0.1,0.1v2.5
				c0,0.1,0,0.1-0.1,0.1S113.5,164.2,113.5,164.2z M113.5,159.2v-2.5c0-0.1,0-0.1,0.1-0.1s0.1,0,0.1,0.1v2.5c0,0.1,0,0.1-0.1,0.1
				S113.5,159.3,113.5,159.2z"/>
		</g>
		<g>
			<path class="st44" d="M113.5,154.3v-1.4h1.4c0.1,0,0.1,0,0.1,0.1s0,0.1-0.1,0.1h-1.2v1.2c0,0.1,0,0.1-0.1,0.1
				C113.5,154.4,113.5,154.3,113.5,154.3z"/>
		</g>
		<g>
			<path class="st44" d="M117.1,153c0-0.1,0-0.1,0.1-0.1h2.4c0.1,0,0.1,0,0.1,0.1s0,0.1-0.1,0.1h-2.4
				C117.1,153.1,117.1,153.1,117.1,153z M121.8,153c0-0.1,0-0.1,0.1-0.1h2.4c0.1,0,0.1,0,0.1,0.1s0,0.1-0.1,0.1H122
				C121.9,153.1,121.8,153.1,121.8,153z M126.6,153c0-0.1,0-0.1,0.1-0.1h2.4c0.1,0,0.1,0,0.1,0.1s0,0.1-0.1,0.1h-2.4
				C126.7,153.1,126.6,153.1,126.6,153z M131.4,153c0-0.1,0-0.1,0.1-0.1h2.4c0.1,0,0.1,0,0.1,0.1s0,0.1-0.1,0.1h-2.4
				C131.4,153.1,131.4,153.1,131.4,153z M136.2,153c0-0.1,0-0.1,0.1-0.1h2.4c0.1,0,0.1,0,0.1,0.1s0,0.1-0.1,0.1h-2.4
				C136.2,153.1,136.2,153.1,136.2,153z M140.9,153c0-0.1,0-0.1,0.1-0.1h2.4c0.1,0,0.1,0,0.1,0.1s0,0.1-0.1,0.1H141
				C141,153.1,140.9,153.1,140.9,153z M145.7,153c0-0.1,0-0.1,0.1-0.1h2.4c0.1,0,0.1,0,0.1,0.1s0,0.1-0.1,0.1h-2.4
				C145.7,153.1,145.7,153.1,145.7,153z"/>
		</g>
		<g>
			<path class="st44" d="M151.7,154.3v-1.2h-1.2c-0.1,0-0.1,0-0.1-0.1s0-0.1,0.1-0.1h1.4v1.4C151.9,154.4,151.9,154.4,151.7,154.3
				C151.7,154.4,151.7,154.3,151.7,154.3z"/>
		</g>
		<g>
			<path class="st44" d="M151.7,193.9v-2.5c0-0.1,0-0.1,0.1-0.1s0.1,0,0.1,0.1v2.5c0,0.1,0,0.1-0.1,0.1S151.7,193.9,151.7,193.9z
				 M151.7,188.9v-2.5c0-0.1,0-0.1,0.1-0.1s0.1,0,0.1,0.1v2.5c0,0.1,0,0.1-0.1,0.1S151.7,189,151.7,188.9z M151.7,184v-2.5
				c0-0.1,0-0.1,0.1-0.1s0.1,0,0.1,0.1v2.5c0,0.1,0,0.1-0.1,0.1S151.7,184,151.7,184z M151.7,179v-2.5c0-0.1,0-0.1,0.1-0.1
				s0.1,0,0.1,0.1v2.5c0,0.1,0,0.1-0.1,0.1S151.7,179.1,151.7,179z M151.7,174.1v-2.5c0-0.1,0-0.1,0.1-0.1s0.1,0,0.1,0.1v2.5
				c0,0.1,0,0.1-0.1,0.1S151.7,174.1,151.7,174.1z M151.7,169.1v-2.5c0-0.1,0-0.1,0.1-0.1s0.1,0,0.1,0.1v2.5c0,0.1,0,0.1-0.1,0.1
				S151.7,169.2,151.7,169.1z M151.7,164.2v-2.5c0-0.1,0-0.1,0.1-0.1s0.1,0,0.1,0.1v2.5c0,0.1,0,0.1-0.1,0.1
				S151.7,164.2,151.7,164.2z M151.7,159.2v-2.5c0-0.1,0-0.1,0.1-0.1s0.1,0,0.1,0.1v2.5c0,0.1,0,0.1-0.1,0.1
				S151.7,159.3,151.7,159.2z"/>
		</g>
	</g>
</g>
<path class="st47" d="M583.4,198.2v9.9c0,0.6-0.1,1.1-0.3,1.6H426.8v-11.5H583.4z"/>
<text transform="matrix(0.9408 0 0 1 441.8691 111.2832)" class="st48 st49 st50">&lt;!DOCTYPE html&gt;</text>
<text transform="matrix(0.9408 0 0 1 441.8691 121.8833)" class="st12 st49 st50">&lt;html&gt;</text>
<text transform="matrix(0.9408 0 0 1 441.8691 132.583)" class="st21 st49 st50">        </text>
<text transform="matrix(0.9408 0 0 1 458.8975 132.583)" class="st12 st49 st50">&lt;head&gt;</text>
<text transform="matrix(0.9408 0 0 1 441.8691 143.1831)" class="st21 st49 st50">              </text>
<text transform="matrix(0.9408 0 0 1 471.6924 143.1831)" class="st12 st49 st50">&lt;title&gt;</text>
<text transform="matrix(0.9408 0 0 1 493.8955 143.1831)" class="st48 st49 st50">Hello, World!</text>
<text transform="matrix(0.9408 0 0 1 541.2178 143.1831)" class="st12 st49 st50">&lt;/title&gt;</text>
<text transform="matrix(0.9408 0 0 1 441.8691 153.7832)" class="st21 st49 st50">        </text>
<text transform="matrix(0.9408 0 0 1 458.8975 153.7832)" class="st12 st49 st50">&lt;/head&gt;</text>
<text transform="matrix(0.9408 0 0 1 441.8691 164.3833)" class="st12 st49 st50">        &lt;body&gt;</text>
<text transform="matrix(0.9408 0 0 1 441.8691 175.083)" class="st21 st49 st50">                 </text>
<text transform="matrix(0.9408 0 0 1 478.0898 175.083)" class="st12 st49 st50">&lt;h1&gt;</text>
<text transform="matrix(0.9408 0 0 1 494.2715 175.083)" class="st48 st49 st50">This is a heading</text>
<text transform="matrix(0.9408 0 0 1 556.3643 175.083)" class="st12 st49 st50">&lt;/h1&gt;</text>
<text transform="matrix(0.9408 0 0 1 441.8691 185.6831)" class="st21 st49 st50">                 </text>
<text transform="matrix(0.9408 0 0 1 478.0898 185.6831)" class="st12 st49 st50">&lt;p&gt;</text>
<text transform="matrix(0.9408 0 0 1 491.167 185.6831)" class="st48 st49 st50">Hello world!</text>
<text transform="matrix(0.9408 0 0 1 535.291 185.6831)" class="st12 st49 st50">&lt;/p&gt;</text>
<text transform="matrix(0.9408 0 0 1 441.8691 196.2832)" class="st21 st49 st50"> </text>
<text transform="matrix(0.9408 0 0 1 444.0332 196.2832)" class="st12 st49 st50">            &lt;/body&gt;</text>
<text transform="matrix(0.9408 0 0 1 441.8691 206.9834)" class="st12 st49 st50">  &lt;/html&gt;</text>
<g>
	<path class="st51" d="M433.5,108.1v0.6h-3.1v-0.6h1.2v-3.8c0-0.1,0-0.2,0-0.4l-1,0.8c0,0-0.1,0-0.1,0.1h-0.1h-0.1c0,0,0,0-0.1-0.1
		l-0.2-0.3l1.7-1.5h0.6v5.2C432.3,108.1,433.5,108.1,433.5,108.1z"/>
	<path class="st51" d="M433.4,118.7c0.1,0,0.2,0,0.2,0.1c0,0,0.1,0.1,0.1,0.2v0.5h-3.9v-0.3c0-0.1,0-0.1,0-0.2s0.1-0.1,0.1-0.2
		l1.8-1.8c0.2-0.2,0.3-0.3,0.4-0.4s0.2-0.3,0.3-0.4c0.1-0.1,0.2-0.3,0.2-0.4s0.1-0.3,0.1-0.5s0-0.3-0.1-0.4s-0.1-0.2-0.2-0.3
		c-0.1-0.1-0.2-0.1-0.3-0.2s-0.2-0.1-0.4-0.1s-0.3,0-0.4,0.1c-0.1,0-0.2,0.1-0.3,0.2c-0.1,0.1-0.2,0.2-0.2,0.3
		c-0.1,0.1-0.1,0.2-0.1,0.3c0,0.1-0.1,0.2-0.1,0.2s-0.1,0-0.2,0l-0.4-0.1c0-0.3,0.1-0.5,0.2-0.7s0.2-0.4,0.4-0.5
		c0.2-0.1,0.4-0.2,0.6-0.3s0.4-0.1,0.7-0.1c0.2,0,0.5,0,0.7,0.1s0.4,0.2,0.6,0.3c0.2,0.1,0.3,0.3,0.4,0.5s0.1,0.4,0.1,0.7
		c0,0.2,0,0.4-0.1,0.6s-0.1,0.4-0.3,0.5c-0.1,0.2-0.2,0.3-0.4,0.5c-0.1,0.2-0.3,0.3-0.5,0.5l-1.5,1.5c0.1,0,0.2-0.1,0.3-0.1
		s0.2,0,0.3,0L433.4,118.7L433.4,118.7z"/>
	<path class="st51" d="M429.9,126c0-0.3,0.1-0.5,0.2-0.7s0.2-0.4,0.4-0.5s0.4-0.2,0.6-0.3s0.4-0.1,0.7-0.1c0.2,0,0.5,0,0.7,0.1
		s0.4,0.2,0.5,0.3c0.1,0.1,0.3,0.3,0.3,0.5c0.1,0.2,0.1,0.4,0.1,0.6s0,0.3-0.1,0.5c0,0.1-0.1,0.3-0.2,0.4s-0.2,0.2-0.3,0.3
		c-0.1,0.1-0.3,0.1-0.4,0.2c0.4,0.1,0.6,0.3,0.8,0.5c0.2,0.2,0.3,0.5,0.3,0.9c0,0.3-0.1,0.5-0.2,0.7s-0.2,0.4-0.4,0.5
		c-0.2,0.1-0.4,0.3-0.6,0.3s-0.5,0.1-0.7,0.1c-0.3,0-0.6,0-0.8-0.1s-0.4-0.2-0.6-0.3s-0.3-0.3-0.4-0.5s-0.2-0.4-0.3-0.6l0.3-0.1
		c0.1,0,0.2,0,0.3,0c0.1,0,0.1,0.1,0.2,0.1c0,0.1,0.1,0.2,0.1,0.3c0.1,0.1,0.1,0.2,0.2,0.3s0.2,0.2,0.3,0.2c0.1,0.1,0.3,0.1,0.5,0.1
		s0.4,0,0.5-0.1s0.3-0.1,0.4-0.2c0.1-0.1,0.2-0.2,0.2-0.3s0.1-0.2,0.1-0.4c0-0.1,0-0.3-0.1-0.4c0-0.1-0.1-0.2-0.2-0.3
		s-0.3-0.2-0.4-0.2s-0.4-0.1-0.7-0.1V127c0.2,0,0.5,0,0.6-0.1c0.2,0,0.3-0.1,0.4-0.2s0.2-0.2,0.2-0.3c0-0.1,0.1-0.2,0.1-0.4
		c0-0.2,0-0.3-0.1-0.4c0-0.1-0.1-0.2-0.2-0.3c-0.1-0.1-0.2-0.1-0.3-0.2c-0.1,0-0.2-0.1-0.4-0.1s-0.3,0-0.4,0.1s-0.2,0.1-0.3,0.2
		c-0.1,0.1-0.2,0.2-0.2,0.3s-0.1,0.2-0.1,0.3c0,0.1-0.1,0.2-0.1,0.2c-0.1,0-0.1,0-0.2,0L429.9,126z"/>
	<path class="st51" d="M433.9,138.9v0.5v0.1h-0.1H433v1.5h-0.7v-1.5h-2.5c-0.1,0-0.1,0-0.1,0l-0.1-0.1l-0.1-0.4l2.8-3.7h0.7v3.7h0.9
		V138.9z M432.4,138.9v-2.2c0-0.1,0-0.2,0-0.2c0-0.1,0-0.2,0-0.3l-2,2.8h2V138.9z"/>
	<path class="st51" d="M430.9,148.1c0.3-0.1,0.6-0.1,0.8-0.1c0.3,0,0.6,0,0.8,0.1s0.4,0.2,0.6,0.4s0.3,0.3,0.4,0.6
		c0.1,0.2,0.1,0.4,0.1,0.7s-0.1,0.6-0.2,0.8s-0.3,0.5-0.4,0.6c-0.2,0.2-0.4,0.3-0.7,0.4s-0.5,0.1-0.8,0.1c-0.2,0-0.3,0-0.5-0.1
		c-0.2,0-0.3-0.1-0.4-0.1c-0.1-0.1-0.3-0.1-0.4-0.2c-0.1-0.1-0.2-0.2-0.3-0.2l0.2-0.3c0.1-0.1,0.1-0.1,0.2-0.1s0.1,0,0.2,0.1
		c0.1,0,0.1,0.1,0.2,0.1c0.1,0.1,0.2,0.1,0.3,0.1s0.3,0.1,0.5,0.1s0.4,0,0.5-0.1c0.2-0.1,0.3-0.2,0.4-0.3s0.2-0.3,0.2-0.4
		c0.1-0.2,0.1-0.3,0.1-0.5s0-0.3-0.1-0.5s-0.1-0.3-0.2-0.4s-0.2-0.2-0.4-0.2c-0.2-0.1-0.3-0.1-0.5-0.1c-0.3,0-0.6,0.1-0.9,0.2
		l-0.5-0.1l0.5-2.7h2.8v0.3c0,0.1,0,0.2-0.1,0.3s-0.2,0.1-0.4,0.1h-1.7L430.9,148.1z"/>
	<path class="st51" d="M431.4,158.9c0,0.1-0.1,0.1-0.1,0.2s-0.1,0.1-0.1,0.2c0.1-0.1,0.3-0.1,0.4-0.2c0.2,0,0.3-0.1,0.5-0.1
		s0.4,0,0.6,0.1s0.4,0.2,0.5,0.3c0.2,0.1,0.3,0.3,0.4,0.5s0.1,0.5,0.1,0.7c0,0.3,0,0.5-0.1,0.7s-0.2,0.4-0.4,0.6s-0.4,0.3-0.6,0.4
		c-0.2,0.1-0.5,0.1-0.8,0.1s-0.6,0-0.8-0.1c-0.2-0.1-0.4-0.2-0.6-0.4s-0.3-0.4-0.4-0.6c-0.1-0.2-0.1-0.5-0.1-0.8s0.1-0.5,0.2-0.8
		s0.3-0.6,0.5-0.9l1.4-1.9c0-0.1,0.1-0.1,0.2-0.1s0.2-0.1,0.2-0.1h0.7L431.4,158.9z M431.8,161.9c0.2,0,0.4,0,0.5-0.1
		s0.3-0.1,0.4-0.2c0.1-0.1,0.2-0.2,0.2-0.4s0.1-0.3,0.1-0.5s0-0.3-0.1-0.5c-0.1-0.1-0.1-0.3-0.2-0.4c-0.1-0.1-0.2-0.2-0.4-0.2
		c-0.1-0.1-0.3-0.1-0.5-0.1s-0.3,0-0.5,0.1c-0.1,0.1-0.3,0.1-0.4,0.3c-0.1,0.1-0.2,0.2-0.2,0.4c-0.1,0.1-0.1,0.3-0.1,0.4
		c0,0.2,0,0.3,0.1,0.5s0.1,0.3,0.2,0.4s0.2,0.2,0.4,0.2C431.4,161.9,431.6,161.9,431.8,161.9z"/>
	<path class="st51" d="M433.8,167.5v0.3c0,0.1,0,0.2,0,0.2s0,0.1-0.1,0.2l-2.3,4.7c0,0.1-0.1,0.1-0.2,0.2s-0.2,0.1-0.3,0.1h-0.6
		l2.4-4.6c0-0.1,0.1-0.1,0.1-0.2c0-0.1,0.1-0.1,0.1-0.2H430c0,0-0.1,0-0.1-0.1l-0.1-0.1v-0.5L433.8,167.5L433.8,167.5z"/>
	<path class="st51" d="M432.6,181c0.4,0.1,0.6,0.3,0.8,0.5c0.2,0.2,0.3,0.5,0.3,0.9c0,0.3,0,0.5-0.1,0.7s-0.2,0.4-0.4,0.5
		c-0.2,0.1-0.4,0.3-0.6,0.3c-0.2,0.1-0.5,0.1-0.8,0.1s-0.6,0-0.8-0.1c-0.2-0.1-0.4-0.2-0.6-0.3s-0.3-0.3-0.4-0.5s-0.1-0.4-0.1-0.7
		c0-0.4,0.1-0.7,0.3-0.9c0.2-0.2,0.5-0.4,0.8-0.5c-0.3-0.1-0.5-0.3-0.7-0.5s-0.2-0.5-0.2-0.8c0-0.2,0-0.4,0.1-0.6
		c0.1-0.2,0.2-0.3,0.4-0.5s0.3-0.2,0.6-0.3c0.2-0.1,0.5-0.1,0.7-0.1c0.3,0,0.5,0,0.7,0.1s0.4,0.2,0.6,0.3s0.3,0.3,0.4,0.5
		s0.1,0.4,0.1,0.6c0,0.3-0.1,0.6-0.2,0.8S432.9,180.9,432.6,181z M431.8,183.4c0.2,0,0.3,0,0.5-0.1c0.1-0.1,0.3-0.1,0.4-0.2
		c0.1-0.1,0.2-0.2,0.2-0.3s0.1-0.3,0.1-0.4c0-0.2,0-0.3-0.1-0.5s-0.1-0.2-0.2-0.3s-0.2-0.2-0.4-0.2c-0.1,0-0.3-0.1-0.4-0.1
		c-0.2,0-0.3,0-0.4,0.1c-0.1,0-0.3,0.1-0.4,0.2c-0.1,0.1-0.2,0.2-0.2,0.3c-0.1,0.1-0.1,0.3-0.1,0.5s0,0.3,0.1,0.4s0.1,0.2,0.2,0.3
		s0.2,0.2,0.4,0.2S431.6,183.4,431.8,183.4z M431.8,178.8c-0.2,0-0.3,0-0.4,0.1c-0.1,0-0.2,0.1-0.3,0.2c-0.1,0.1-0.1,0.2-0.2,0.3
		c0,0.1-0.1,0.2-0.1,0.4c0,0.1,0,0.2,0.1,0.4c0,0.1,0.1,0.2,0.2,0.3s0.2,0.2,0.3,0.2c0.1,0.1,0.3,0.1,0.5,0.1s0.3,0,0.5-0.1
		c0.1-0.1,0.2-0.1,0.3-0.2s0.1-0.2,0.2-0.3c0-0.1,0.1-0.2,0.1-0.4c0-0.1,0-0.2-0.1-0.4c0-0.1-0.1-0.2-0.2-0.3s-0.2-0.2-0.3-0.2
		C432.1,178.8,431.9,178.8,431.8,178.8z"/>
	<path class="st51" d="M432.2,192.5c0.1-0.1,0.2-0.3,0.3-0.4c-0.1,0.1-0.3,0.2-0.5,0.2c-0.2,0.1-0.4,0.1-0.6,0.1s-0.4,0-0.6-0.1
		s-0.4-0.2-0.5-0.3s-0.3-0.3-0.4-0.5s-0.1-0.4-0.1-0.7c0-0.2,0-0.5,0.1-0.7s0.2-0.4,0.4-0.6c0.2-0.2,0.4-0.3,0.6-0.4
		s0.5-0.1,0.8-0.1s0.5,0,0.8,0.1c0.2,0.1,0.4,0.2,0.6,0.4s0.3,0.4,0.4,0.6c0.1,0.2,0.1,0.5,0.1,0.8c0,0.2,0,0.3,0,0.5
		s-0.1,0.3-0.1,0.4c-0.1,0.1-0.1,0.3-0.2,0.4c-0.1,0.1-0.2,0.3-0.3,0.4l-1.4,2c0,0.1-0.1,0.1-0.2,0.1s-0.2,0.1-0.2,0.1h-0.7
		L432.2,192.5z M430.6,190.7c0,0.4,0.1,0.6,0.3,0.8c0.2,0.2,0.5,0.3,0.8,0.3c0.2,0,0.3,0,0.5-0.1c0.1-0.1,0.3-0.1,0.4-0.2
		c0.1-0.1,0.2-0.2,0.2-0.3s0.1-0.3,0.1-0.4c0-0.2,0-0.3-0.1-0.5s-0.1-0.3-0.2-0.4c-0.1-0.1-0.2-0.2-0.3-0.2s-0.3-0.1-0.4-0.1
		c-0.2,0-0.3,0-0.5,0.1s-0.3,0.1-0.4,0.2s-0.2,0.2-0.2,0.4C430.7,190.4,430.6,190.5,430.6,190.7z"/>
</g>
<text transform="matrix(1 0 0 1 427.5238 206.5833)" class="st51 st52 st53">10</text>
</svg>
