<svg xmlns="http://www.w3.org/2000/svg" version="1.1" xmlns:xlink="http://www.w3.org/1999/xlink" xmlns:svgjs="http://svgjs.dev/svgjs" width="1500" height="1500" viewBox="0 0 1500 1500"><rect width="1500" height="1500" fill="#0042c7"></rect><g transform="matrix(0.6666666666666666,0,0,0.6666666666666666,249.78425655976667,249.78425655976673)"><svg viewBox="0 0 343 343" data-background-color="#0042c7" preserveAspectRatio="xMidYMid meet" height="1500" width="1500" xmlns="http://www.w3.org/2000/svg" xmlns:xlink="http://www.w3.org/1999/xlink"><g id="tight-bounds" transform="matrix(1,0,0,1,0.0740000000000407,0.07400000000001228)"><svg viewBox="0 0 342.85155851775386 342.85155851775386" height="342.85155851775386" width="342.85155851775386"><g><svg></svg></g><g><svg viewBox="0 0 342.85155851775386 342.85155851775386" height="342.85155851775386" width="342.85155851775386"><g><path d="M0 171.426c0-94.676 76.75-171.426 171.426-171.426 94.676 0 171.426 76.75 171.426 171.426 0 94.676-76.75 171.426-171.426 171.426-94.676 0-171.426-76.75-171.426-171.426zM171.426 337.951c91.969 0 166.525-74.556 166.525-166.525 0-91.969-74.556-166.525-166.525-166.525-91.969 0-166.525 74.556-166.525 166.525 0 91.969 74.556 166.525 166.525 166.525z" data-fill-palette-color="tertiary" fill="#e1e1dd" stroke="transparent"></path><ellipse rx="164.56874808852186" ry="164.56874808852186" cx="171.42577925887693" cy="171.42577925887693" fill="#e1e1dd" stroke="transparent" stroke-width="0" fill-opacity="1" data-fill-palette-color="tertiary"></ellipse></g><g transform="matrix(1,0,0,1,64.84655864529837,100.28586402867947)"><svg viewBox="0 0 213.1584412271571 142.27983046039492" height="142.27983046039492" width="213.1584412271571"><g><svg viewBox="0 0 213.1584412271571 142.27983046039492" height="142.27983046039492" width="213.1584412271571"><g><svg viewBox="0 0 213.1584412271571 142.27983046039492" height="142.27983046039492" width="213.1584412271571"><g transform="matrix(1,0,0,1,0,87.93464320823152)"><svg viewBox="0 0 213.1584412271571 54.345187252163385" height="54.345187252163385" width="213.1584412271571"><g id="textblocktransform"><svg viewBox="0 0 213.1584412271571 54.345187252163385" height="54.345187252163385" width="213.1584412271571" id="textblock"><g><svg viewBox="0 0 213.1584412271571 54.345187252163385" height="54.345187252163385" width="213.1584412271571"><g transform="matrix(1,0,0,1,0,0)"><svg width="213.1584412271571" viewBox="3.15 -39.2 156.48999999999998 39.900000000000006" height="54.345187252163385" data-palette-color="#0042c7"><path d="M12.8-35.95L12.8-35.95Q15.3-35.95 16.6-35.38 17.9-34.8 18.9-34.1L18.9-34.1Q19.5-33.75 19.88-33.58 20.25-33.4 20.6-33.4L20.6-33.4Q21.4-33.4 21.7-35.6L21.7-35.6 22.85-35.6Q22.8-34.75 22.73-33.58 22.65-32.4 22.63-30.48 22.6-28.55 22.6-25.4L22.6-25.4 21.45-25.4Q21.3-27.8 20.4-30 19.5-32.2 17.78-33.6 16.05-35 13.25-35L13.25-35Q10.6-35 8.88-33.4 7.15-31.8 7.15-29.2L7.15-29.2Q7.15-26.95 8.3-25.43 9.45-23.9 11.38-22.68 13.3-21.45 15.55-20.05L15.55-20.05Q18.15-18.45 20.18-16.88 22.2-15.3 23.38-13.4 24.55-11.5 24.55-8.8L24.55-8.8Q24.55-5.6 23.1-3.5 21.65-1.4 19.25-0.35 16.85 0.7 13.95 0.7L13.95 0.7Q11.3 0.7 9.75 0.1 8.2-0.5 7.1-1.15L7.1-1.15Q6-1.85 5.4-1.85L5.4-1.85Q4.6-1.85 4.3 0.35L4.3 0.35 3.15 0.35Q3.25-0.7 3.28-2.13 3.3-3.55 3.33-5.85 3.35-8.15 3.35-11.65L3.35-11.65 4.5-11.65Q4.7-8.65 5.63-6.05 6.55-3.45 8.47-1.88 10.4-0.3 13.6-0.3L13.6-0.3Q16.05-0.3 18.07-1.88 20.1-3.45 20.1-6.95L20.1-6.95Q20.1-10 17.95-12 15.8-14 12.3-16.1L12.3-16.1Q9.95-17.55 7.9-19.05 5.85-20.55 4.63-22.53 3.4-24.5 3.4-27.3L3.4-27.3Q3.4-30.25 4.73-32.18 6.05-34.1 8.2-35.02 10.35-35.95 12.8-35.95ZM36.3-39.2L36.3-39.2 36.3-4.65Q36.3-2.55 37.05-1.8 37.8-1.05 39.6-1.05L39.6-1.05 39.6 0Q38.8-0.05 37.22-0.13 35.65-0.2 34.05-0.2L34.05-0.2Q32.35-0.2 30.6-0.13 28.85-0.05 28 0L28 0 28-1.05Q30.05-1.05 30.92-1.8 31.8-2.55 31.8-4.65L31.8-4.65 31.8-33.2Q31.8-35.45 31-36.52 30.2-37.6 28-37.6L28-37.6 28-38.65Q29.6-38.5 31.1-38.5L31.1-38.5Q32.55-38.5 33.87-38.68 35.2-38.85 36.3-39.2ZM52.2-25.75L52.2-25.75 52.2-24.75Q50.95-24.65 49.85-24.08 48.75-23.5 47.7-22.4L47.7-22.4 40.65-15 41.35-16.4 50.65-3.65Q51.5-2.5 52.27-1.85 53.05-1.2 54.15-1.05L54.15-1.05 54.15 0Q53.6-0.05 52.42-0.13 51.25-0.2 50.1-0.2L50.1-0.2Q48.55-0.2 46.95-0.13 45.35-0.05 44.55 0L44.55 0 44.55-1.05Q45.55-1.05 45.95-1.55 46.35-2.05 45.8-2.75L45.8-2.75 40.05-11.15Q39.1-12.5 38.32-12.9 37.55-13.3 36.1-13.35L36.1-13.35 36.1-14.35Q37.7-14.55 38.7-15.03 39.7-15.5 40.6-16.45L40.6-16.45 44.3-20.3Q45.9-21.95 45.9-22.93 45.9-23.9 44.87-24.33 43.85-24.75 42.2-24.75L42.2-24.75 42.2-25.75Q43.5-25.7 45.12-25.63 46.75-25.55 47.85-25.55L47.85-25.55Q48.7-25.55 49.5-25.58 50.3-25.6 51-25.65 51.7-25.7 52.2-25.75ZM61.65-38.25L61.65-38.25Q62.95-38.25 63.9-37.3 64.84-36.35 64.84-35.05L64.84-35.05Q64.84-33.75 63.9-32.8 62.95-31.85 61.65-31.85L61.65-31.85Q60.35-31.85 59.4-32.8 58.45-33.75 58.45-35.05L58.45-35.05Q58.45-36.35 59.4-37.3 60.35-38.25 61.65-38.25ZM64.25-26.3L64.25-26.3 64.25-4.65Q64.25-2.55 65.12-1.8 66-1.05 68.05-1.05L68.05-1.05 68.05 0Q67.2-0.05 65.47-0.13 63.75-0.2 62-0.2L62-0.2Q60.3-0.2 58.55-0.13 56.8-0.05 55.95 0L55.95 0 55.95-1.05Q58-1.05 58.87-1.8 59.75-2.55 59.75-4.65L59.75-4.65 59.75-20.3Q59.75-22.55 58.95-23.63 58.15-24.7 55.95-24.7L55.95-24.7 55.95-25.75Q57.55-25.6 59.05-25.6L59.05-25.6Q60.5-25.6 61.82-25.78 63.15-25.95 64.25-26.3ZM78.54-39.2L78.54-39.2 78.54-4.65Q78.54-2.55 79.42-1.8 80.29-1.05 82.34-1.05L82.34-1.05 82.34 0Q81.49-0.05 79.77-0.13 78.04-0.2 76.29-0.2L76.29-0.2Q74.59-0.2 72.84-0.13 71.09-0.05 70.24 0L70.24 0 70.24-1.05Q72.29-1.05 73.17-1.8 74.04-2.55 74.04-4.65L74.04-4.65 74.04-33.2Q74.04-35.45 73.24-36.52 72.44-37.6 70.24-37.6L70.24-37.6 70.24-38.65Q71.84-38.5 73.34-38.5L73.34-38.5Q74.79-38.5 76.12-38.68 77.44-38.85 78.54-39.2ZM92.84-39.2L92.84-39.2 92.84-4.65Q92.84-2.55 93.72-1.8 94.59-1.05 96.64-1.05L96.64-1.05 96.64 0Q95.79-0.05 94.07-0.13 92.34-0.2 90.59-0.2L90.59-0.2Q88.89-0.2 87.14-0.13 85.39-0.05 84.54 0L84.54 0 84.54-1.05Q86.59-1.05 87.47-1.8 88.34-2.55 88.34-4.65L88.34-4.65 88.34-33.2Q88.34-35.45 87.54-36.52 86.74-37.6 84.54-37.6L84.54-37.6 84.54-38.65Q86.14-38.5 87.64-38.5L87.64-38.5Q89.09-38.5 90.42-38.68 91.74-38.85 92.84-39.2ZM130.49-35.4L130.49-35.4 130.49-34.4Q128.79-34.35 127.91-33.9 127.04-33.45 126.74-32.45 126.44-31.45 126.44-29.6L126.44-29.6 126.44-14.55Q126.44-11.05 125.99-8.45 125.54-5.85 124.39-3.95L124.39-3.95Q123.14-1.85 120.74-0.58 118.34 0.7 115.24 0.7L115.24 0.7Q112.84 0.7 110.66 0.13 108.49-0.45 106.84-2L106.84-2Q105.39-3.4 104.56-4.95 103.74-6.5 103.44-8.75 103.14-11 103.14-14.4L103.14-14.4 103.14-30.1Q103.14-31.95 102.84-32.83 102.54-33.7 101.66-34.02 100.79-34.35 99.09-34.4L99.09-34.4 99.09-35.4Q100.14-35.35 101.84-35.3 103.54-35.25 105.49-35.25L105.49-35.25Q107.24-35.25 108.96-35.3 110.69-35.35 111.84-35.4L111.84-35.4 111.84-34.4Q110.14-34.35 109.26-34.02 108.39-33.7 108.09-32.83 107.79-31.95 107.79-30.1L107.79-30.1 107.79-13.55Q107.79-10.15 108.29-7.3 108.79-4.45 110.46-2.75 112.14-1.05 115.69-1.05L115.69-1.05Q119.49-1.05 121.56-2.73 123.64-4.4 124.46-7.35 125.29-10.3 125.29-14L125.29-14 125.29-29.6Q125.29-31.45 124.86-32.45 124.44-33.45 123.44-33.9 122.44-34.35 120.74-34.4L120.74-34.4 120.74-35.4Q121.64-35.35 123.11-35.3 124.59-35.25 125.84-35.25L125.84-35.25Q127.14-35.25 128.41-35.3 129.69-35.35 130.49-35.4ZM133.94-34.4L133.94-35.4Q134.99-35.35 136.69-35.3 138.39-35.25 140.03-35.25L140.03-35.25Q142.39-35.25 144.53-35.3 146.69-35.35 147.59-35.35L147.59-35.35Q153.64-35.35 156.64-32.6 159.64-29.85 159.64-25.5L159.64-25.5Q159.64-23.7 159.04-21.73 158.44-19.75 156.96-18.07 155.49-16.4 152.94-15.35 150.39-14.3 146.49-14.3L146.49-14.3 141.69-14.3 141.69-15.3 145.99-15.3Q149.53-15.3 151.41-16.65 153.29-18 153.96-20.2 154.64-22.4 154.64-24.95L154.64-24.95Q154.64-29.7 152.76-32.05 150.89-34.4 146.34-34.4L146.34-34.4Q144.03-34.4 143.34-33.55 142.64-32.7 142.64-30.1L142.64-30.1 142.64-5.3Q142.64-3.5 143.01-2.6 143.39-1.7 144.49-1.4 145.59-1.1 147.69-1L147.69-1 147.69 0Q146.39-0.1 144.39-0.13 142.39-0.15 140.34-0.15L140.34-0.15Q138.39-0.15 136.69-0.13 134.99-0.1 133.94 0L133.94 0 133.94-1Q135.64-1.1 136.51-1.4 137.39-1.7 137.69-2.6 137.99-3.5 137.99-5.3L137.99-5.3 137.99-30.1Q137.99-31.95 137.69-32.83 137.39-33.7 136.51-34.02 135.64-34.35 133.94-34.4L133.94-34.4Z" opacity="1" transform="matrix(1,0,0,1,0,0)" fill="#0042c7" class="wordmark-text-0" data-fill-palette-color="quaternary" id="text-0"></path></svg></g></svg></g></svg></g></svg></g><g transform="matrix(1,0,0,1,53.499515582866785,0)"><svg viewBox="0 0 106.15941006142354 75.1050487824898" height="75.1050487824898" width="106.15941006142354"><g><svg xmlns="http://www.w3.org/2000/svg" xmlns:xlink="http://www.w3.org/1999/xlink" version="1.1" x="0" y="0" viewBox="11.945079976851666 23.076999999999995 76.10954382567866 53.84554227018836" enable-background="new 0 0 100 100" xml:space="preserve" height="75.1050487824898" width="106.15941006142354" class="icon-icon-0" data-fill-palette-color="quaternary" id="icon-0"><path d="M87.966 54.235c-0.198-0.611-0.707-1.07-1.336-1.207l-10.629-2.299-3.868-6.639 1.57-1.76c0.429-0.479 0.569-1.15 0.371-1.762-0.199-0.613-0.708-1.072-1.337-1.209l-13.977-3.027-7.197-12.357c-0.324-0.557-0.919-0.898-1.562-0.898s-1.238 0.342-1.562 0.898l-7.195 12.357L27.264 39.36c-0.629 0.137-1.138 0.596-1.337 1.209-0.199 0.611-0.057 1.283 0.371 1.764l1.57 1.756-3.869 6.641L13.37 53.028c-0.629 0.137-1.138 0.596-1.336 1.207-0.199 0.613-0.059 1.285 0.37 1.764l7.247 8.113-1.096 10.82c-0.064 0.641 0.215 1.266 0.736 1.645 0.52 0.377 1.204 0.453 1.791 0.191l9.951-4.385 9.951 4.385c0.232 0.104 0.481 0.154 0.729 0.154 0.375 0 0.748-0.117 1.062-0.346 0.521-0.377 0.801-1.004 0.736-1.645l-0.85-8.406 7.338-3.232 7.337 3.232-0.851 8.406c-0.064 0.641 0.216 1.268 0.736 1.645 0.314 0.229 0.688 0.346 1.062 0.346 0.247 0 0.496-0.051 0.729-0.154l9.951-4.385 9.951 4.385c0.587 0.262 1.271 0.186 1.791-0.191 0.521-0.379 0.801-1.004 0.736-1.645l-1.096-10.82 7.247-8.113C88.024 55.521 88.165 54.849 87.966 54.235zM39.603 72.208l-7.84-3.453c-0.232-0.104-0.48-0.154-0.729-0.154s-0.496 0.051-0.729 0.154l-7.84 3.453 0.863-8.523c0.051-0.506-0.112-1.008-0.45-1.387l-5.71-6.391 8.373-1.811c0.496-0.107 0.925-0.42 1.181-0.857l3.688-6.305 5.418 6.062-1.439 14.227c-0.065 0.639 0.216 1.266 0.736 1.645s1.204 0.451 1.792 0.191l2.267-1L39.603 72.208zM50.001 59.511c-0.248 0-0.496 0.051-0.729 0.152l-10.974 4.836 1.207-11.93c0.052-0.506-0.112-1.008-0.45-1.387l-7.992-8.945L42.787 39.7c0.496-0.107 0.925-0.42 1.18-0.857l6.034-10.365 6.036 10.365c0.256 0.438 0.684 0.75 1.18 0.857l11.722 2.537-7.988 8.945c-0.338 0.379-0.501 0.881-0.45 1.387l1.205 11.93L50.73 59.663C50.497 59.562 50.249 59.511 50.001 59.511zM77.121 62.298c-0.338 0.379-0.501 0.881-0.45 1.387l0.863 8.523-7.84-3.453c-0.232-0.104-0.48-0.154-0.729-0.154s-0.496 0.051-0.729 0.154l-7.84 3.453 0.419-4.148 2.27 1c0.234 0.104 0.482 0.152 0.729 0.152 0.376 0 0.748-0.115 1.062-0.344 0.521-0.379 0.801-1.006 0.736-1.645l-1.437-14.227 5.413-6.061 3.687 6.303c0.256 0.438 0.685 0.75 1.181 0.857l8.373 1.811L77.121 62.298z" fill="#0042c7" data-fill-palette-color="quaternary"></path></svg></g></svg></g><g></g></svg></g></svg></g></svg></g></svg></g><defs></defs></svg><rect width="342.85155851775386" height="342.85155851775386" fill="none" stroke="none" visibility="hidden"></rect></g></svg></g></svg>